# xmcd
#
# Track frame offsets:
# 150
# 9570
# 24182
# 41894
# 54688
# 64240
# 75763
# 85573
# 95902
# 106678
# 123500
# 139346
# 155718
# 165673
# 178710
#
# Disc length: 2580 seconds
#
#
# Revision: 0
# Processed by: cddbd v1.5.2PL0 Copyright (c) Steve Scherf et al.
# Submitted via: FreeRIP 2.945 
#
DISCID=bd0a120f
DTITLE=Various Artist - Country Christmas
DYEAR=1900
DGENRE=Country
TTITLE0=Lynn Anderson - Rockin' Around The Christmas Tree
TTITLE1=Jim Reeves - Mary's Little Boy Child
TTITLE2=Tanya Tucker - Winter Wonderland
TTITLE3=Glen Campbell and Neil Diamond - I'll Be Home For Christmas
TTITLE4=Brenda Lee - Santa Claus Is Coming To Town
TTITLE5=Wille Nelson - Pretty Paper
TTITLE6=Floyd Cramer - Jingle Bell Rock
TTITLE7=Tammy Wynette - Joy To The World
TTITLE8=Johnny Cash - Blue Christmas
TTITLE9=Alabama - Christmas In Dixie
TTITLE10=Roger Whittaker - The Twelve Days Of Christmas
TTITLE11=Dolly Parton - Hard Candy Christmas
TTITLE12=Gary Morris - Oh Holy Night
TTITLE13=Barbara Mandrell - Christmas At Our House
TTITLE14=Gary Morris - Oh Holy Night
EXTD=
EXTT0=
EXTT1=
EXTT2=
EXTT3=
EXTT4=
EXTT5=
EXTT6=
EXTT7=
EXTT8=
EXTT9=
EXTT10=
EXTT11=
EXTT12=
EXTT13=
EXTT14=
PLAYORDER=
